<?xml version="1.0" standalone="no"?>
<!DOCTYPE svg PUBLIC "-//W3C//DTD SVG 1.0//EN" "http://www.w3.org/TR/2001/REC-SVG-20010904/DTD/svg10.dtd">
<svg xmlns="http://www.w3.org/2000/svg" xmlns:xlink="http://www.w3.org/1999/xlink" id="body_1" width="250" height="250">

<g transform="matrix(0.9765625 0 0 0.9765625 0 0)">
	<g transform="matrix(0.1 0 -0 -0.1 0 256)">
        <path d="M1597 2212C 1582 2195 1580 2149 1580 1762L1580 1762L1580 1330L1462 1330C 1335 1330 1320 1325 1320 1280C 1320 1235 1335 1230 1462 1230L1462 1230L1580 1230L1580 797C 1580 389 1581 362 1598 347C 1613 334 1637 330 1713 330C 1805 330 1810 331 1826 355C 1841 378 1841 382 1826 405C 1811 427 1803 430 1745 430L1745 430L1680 430L1680 830L1680 1230L1745 1230C 1803 1230 1811 1233 1826 1255C 1841 1278 1841 1282 1826 1305C 1811 1327 1803 1330 1745 1330L1745 1330L1680 1330L1680 1730L1680 2130L1740 2130C 1787 2130 1804 2134 1820 2150C 1844 2174 1844 2179 1824 2208C 1810 2228 1801 2230 1711 2230C 1629 2230 1610 2227 1597 2212z" stroke="none" fill="#000000" fill-rule="nonzero" />
        <path d="M644 2108C 621 2103 585 2084 562 2065C 540 2046 515 2030 507 2030C 500 2030 485 2020 474 2009C 458 1991 455 1973 456 1876C 457 1815 462 1754 468 1740C 478 1718 479 1721 479 1766C 481 1932 587 2006 745 1951C 805 1930 850 1897 850 1874C 850 1868 857 1857 865 1850C 875 1842 880 1818 881 1781C 882 1692 902 1756 904 1855C 905 1924 901 1943 877 1993C 832 2084 743 2128 644 2108z" stroke="none" fill="#000000" fill-rule="nonzero" />
        <path d="M860 1303C 859 1175 830 947 800 832C 783 768 764 711 759 706C 754 700 750 753 750 846C 749 980 747 1001 726 1050C 710 1087 695 1106 682 1108C 654 1112 621 1021 613 918C 610 875 604 843 600 847C 596 851 578 909 560 975C 536 1065 527 1124 522 1212C 519 1277 515 1330 512 1330C 509 1330 497 1322 486 1312C 474 1302 389 1259 295 1217C 202 1174 118 1136 110 1131C 80 1115 16 839 4 674L4 674L-3 583L201 577C 541 566 1420 568 1420 581C 1420 603 1289 1084 1276 1109C 1255 1148 1231 1166 1170 1185C 1090 1211 924 1297 890 1332L890 1332L860 1362L860 1303z" stroke="none" fill="#000000" fill-rule="nonzero" />
	</g>
</g>
</svg>