<?xml version="1.0" standalone="no"?>
<!DOCTYPE svg PUBLIC "-//W3C//DTD SVG 20010904//EN"
 "http://www.w3.org/TR/2001/REC-SVG-20010904/DTD/svg10.dtd">
<svg version="1.0" xmlns="http://www.w3.org/2000/svg"
 width="256.000000pt" height="144.000000pt" viewBox="0 0 256.000000 144.000000"
 preserveAspectRatio="xMidYMid meet">

<g transform="translate(0.000000,144.000000) scale(0.100000,-0.100000)"
fill="#000000" stroke="none">
<path d="M1318 1138 c0 -7 -2 -19 -2 -27 -1 -8 -8 -16 -16 -18 -13 -4 -13 -3
0 6 13 9 13 11 -2 11 -25 0 -22 -15 7 -34 14 -9 25 -23 25 -31 0 -8 7 -15 15
-15 9 0 15 9 15 21 0 18 2 19 15 9 18 -15 19 -1 1 23 -7 9 -21 17 -31 17 -13
0 -16 6 -13 25 3 14 1 25 -3 25 -5 0 -10 -6 -11 -12z"/>
<path d="M2198 1078 c6 -6 18 -8 28 -6 14 3 12 5 -9 10 -19 3 -25 2 -19 -4z"/>
<path d="M1295 1060 c-3 -5 -1 -10 4 -10 6 0 11 5 11 10 0 6 -2 10 -4 10 -3 0
-8 -4 -11 -10z"/>
<path d="M2165 1050 c-16 -7 -17 -9 -3 -9 9 -1 20 4 23 9 7 11 7 11 -20 0z"/>
<path d="M2167 1011 c-4 -17 -3 -21 5 -13 5 5 8 16 6 23 -3 8 -7 3 -11 -10z"/>
<path d="M2270 1021 c0 -6 4 -13 10 -16 6 -3 7 1 4 9 -7 18 -14 21 -14 7z"/>
<path d="M1510 1000 c0 -24 10 -50 20 -50 4 0 15 10 23 23 14 22 14 24 -14 34
-25 10 -29 9 -29 -7z m32 -15 c0 -5 -5 -11 -11 -13 -6 -2 -11 4 -11 13 0 9 5
15 11 13 6 -2 11 -8 11 -13z"/>
<path d="M1221 981 c18 -15 29 -17 51 -9 44 15 33 28 -23 28 l-51 0 23 -19z
m49 5 c0 -9 -30 -14 -35 -6 -4 6 3 10 14 10 12 0 21 -2 21 -4z"/>
<path d="M1448 970 c9 -16 21 -25 25 -21 12 12 -10 51 -28 51 -12 0 -11 -5 3
-30z"/>
<path d="M493 975 c-25 -18 -33 -43 -21 -74 5 -16 13 -21 24 -17 12 4 15 2 10
-9 -9 -24 27 -18 52 8 13 13 22 36 22 53 0 19 -3 24 -8 16 -5 -8 -16 -10 -27
-6 -14 6 -16 4 -10 -7 8 -12 6 -12 -8 0 -20 16 -22 37 -4 44 6 3 7 6 2 6 -6 1
-20 -6 -32 -14z m0 -20 c-3 -9 -8 -14 -10 -11 -3 3 -2 9 2 15 9 16 15 13 8 -4z
m77 -39 c0 -7 -7 -19 -15 -26 -10 -9 -15 -9 -15 -1 0 6 5 11 11 11 6 0 9 7 5
15 -3 8 -1 15 4 15 6 0 10 -6 10 -14z"/>
<path d="M2198 978 c6 -6 18 -8 28 -6 14 3 12 5 -9 10 -19 3 -25 2 -19 -4z"/>
<path d="M1430 940 c0 -5 10 -15 23 -21 22 -12 22 -12 3 10 -21 23 -26 26 -26
11z"/>
<path d="M1265 924 l-40 -13 40 5 c42 6 85 24 55 23 -8 0 -33 -7 -55 -15z"/>
<path d="M945 910 c3 -5 8 -10 11 -10 2 0 4 5 4 10 0 6 -5 10 -11 10 -5 0 -7
-4 -4 -10z"/>
<path d="M918 893 c7 -3 16 -2 19 1 4 3 -2 6 -13 5 -11 0 -14 -3 -6 -6z"/>
<path d="M1868 883 c7 -3 16 -2 19 1 4 3 -2 6 -13 5 -11 0 -14 -3 -6 -6z"/>
<path d="M1265 860 c4 -6 1 -17 -5 -25 -17 -21 10 -20 36 1 18 14 18 15 -6 4
-23 -10 -24 -10 -7 4 11 8 25 12 32 10 7 -3 16 -1 20 5 4 7 -8 11 -35 11 -26
0 -39 -4 -35 -10z"/>
<path d="M862 830 c0 -14 2 -19 5 -12 2 6 2 18 0 25 -3 6 -5 1 -5 -13z"/>
<path d="M1822 820 c0 -14 2 -19 5 -12 2 6 2 18 0 25 -3 6 -5 1 -5 -13z"/>
<path d="M463 770 c-75 -17 -119 -74 -110 -143 7 -52 38 -83 122 -122 91 -42
108 -69 77 -124 -12 -21 -22 -45 -22 -52 1 -8 9 4 20 26 10 22 21 39 24 38 3
-2 21 -3 40 -3 l35 0 -5 52 c-5 65 -20 82 -112 125 -84 40 -104 69 -77 110 24
37 75 29 95 -14 13 -29 19 -33 58 -33 37 0 42 3 42 23 0 75 -99 137 -187 117z"/>
<path d="M933 771 c-16 -4 -36 -33 -67 -98 -25 -51 -50 -93 -56 -93 -6 0 -10
36 -10 95 l0 95 -45 0 -45 0 0 -105 c0 -84 3 -105 14 -105 15 0 32 -37 22 -47
-3 -4 2 -15 11 -25 9 -10 17 -34 17 -52 1 -19 4 -32 9 -29 17 10 18 -29 1 -43
-11 -9 -13 -13 -6 -9 6 3 12 0 12 -7 0 -8 -9 -14 -20 -15 -11 -1 -27 -9 -36
-17 -14 -15 -12 -16 25 -16 46 0 44 -6 45 125 1 33 5 62 10 65 4 3 30 -39 58
-92 l49 -98 60 0 c69 0 72 -17 -22 147 -33 56 -59 104 -59 107 0 3 29 51 65
107 36 57 64 103 62 104 -8 7 -76 12 -94 6z m-150 -274 c4 3 7 -4 7 -17 0 -13
-1 -21 -3 -19 -1 2 -11 15 -22 29 -12 15 -14 20 -4 12 9 -6 19 -9 22 -5z m14
-69 c-3 -8 -6 -5 -6 6 -1 11 2 17 5 13 3 -3 4 -12 1 -19z"/>
<path d="M1973 768 c-42 -9 -93 -57 -93 -86 0 -7 -9 -12 -20 -12 -11 0 -20 -5
-20 -11 0 -6 7 -9 15 -5 13 5 20 -5 13 -18 -2 -3 7 -15 19 -28 11 -13 23 -32
25 -43 2 -12 30 -33 83 -60 74 -37 80 -43 83 -73 4 -43 -12 -62 -54 -62 -35 0
-64 28 -64 62 0 14 -8 18 -35 18 -19 0 -35 -1 -35 -3 0 -1 -4 -17 -10 -36 -9
-31 -7 -36 23 -66 58 -58 152 -68 223 -24 17 10 33 17 36 14 7 -7 10 21 11 88
1 52 -3 61 -30 89 -17 17 -59 44 -94 62 -74 36 -87 53 -73 93 17 51 104 35
104 -19 0 -15 8 -18 45 -18 42 0 45 2 45 26 0 82 -94 135 -197 112z"/>
<path d="M1080 535 l0 -235 45 0 45 0 0 235 0 235 -45 0 -45 0 0 -235z"/>
<path d="M1247 763 c-4 -3 -7 -109 -7 -235 l0 -228 70 0 c42 0 70 4 70 10 0 7
7 7 21 -1 15 -8 24 -8 28 -1 4 7 12 8 21 2 8 -6 25 -10 38 -10 18 0 22 5 22
34 0 32 -3 35 -32 38 -33 3 -33 3 -36 66 -3 61 -3 62 -32 62 -29 0 -29 -1 -32
-62 -2 -50 -6 -63 -20 -66 -17 -3 -18 11 -18 197 l0 201 -43 0 c-24 0 -47 -3
-50 -7z m164 -386 c-13 -13 -15 24 -3 63 6 22 7 21 10 -14 2 -21 -1 -43 -7
-49z"/>
<path d="M1560 537 l0 -234 148 -5 c81 -3 151 -1 157 3 5 5 0 9 -13 9 -18 0
-22 6 -22 30 l0 29 -87 3 -88 3 0 195 -1 195 -47 3 -47 3 0 -234z"/>
<path d="M1878 753 c6 -2 18 -2 25 0 6 3 1 5 -13 5 -14 0 -19 -2 -12 -5z"/>
<path d="M1407 683 c-13 -13 -7 -21 13 -16 11 3 20 9 20 14 0 10 -24 12 -33 2z"/>
<path d="M135 610 c3 -5 11 -10 16 -10 6 0 7 5 4 10 -3 6 -11 10 -16 10 -6 0
-7 -4 -4 -10z"/>
<path d="M1470 586 c0 -8 -3 -22 -6 -31 -6 -14 0 -16 32 -13 34 3 39 6 42 31
3 25 1 27 -32 27 -24 0 -36 -5 -36 -14z"/>
<path d="M1789 573 c-11 -3 -15 -11 -12 -24 4 -14 14 -19 40 -19 28 0 34 3 29
16 -3 9 -6 20 -6 25 0 9 -22 10 -51 2z"/>
<path d="M220 534 c0 -6 8 -18 18 -26 21 -19 55 -32 47 -18 -3 6 -12 10 -20
10 -8 0 -21 10 -29 22 -9 12 -16 18 -16 12z"/>
<path d="M195 510 c10 -11 20 -20 23 -20 3 0 -3 9 -13 20 -10 11 -20 20 -23
20 -3 0 3 -9 13 -20z"/>
<path d="M683 507 c-24 -31 -25 -41 -2 -22 13 11 25 21 27 21 2 1 -1 5 -6 8
-5 3 -14 0 -19 -7z"/>
<path d="M2435 491 c-11 -5 -25 -6 -31 -4 -5 2 -19 -5 -29 -17 -10 -11 -30
-20 -44 -20 -30 0 -81 -43 -81 -67 0 -9 -10 -27 -22 -40 l-22 -23 31 11 c17 5
39 19 49 30 9 10 23 19 29 19 12 0 58 33 125 90 35 30 33 36 -5 21z"/>
<path d="M74 477 c10 -6 28 -22 39 -34 11 -13 26 -23 32 -23 7 0 20 -9 30 -20
10 -11 24 -20 32 -20 7 0 22 -9 32 -19 23 -23 55 -41 72 -41 7 0 3 9 -9 20
-12 12 -22 29 -22 40 0 22 -58 70 -76 63 -7 -2 -25 4 -41 15 -15 11 -46 23
-68 26 -34 5 -37 4 -21 -7z"/>
<path d="M343 408 c7 -52 50 -93 114 -110 24 -5 40 -14 37 -19 -3 -5 4 -9 14
-9 14 0 20 7 20 25 0 14 -4 25 -8 25 -4 0 -5 11 -2 25 4 21 0 25 -19 25 -34 0
-49 12 -58 46 -7 26 -12 29 -56 32 l-48 3 6 -43z"/>
<path d="M540 425 c-6 -8 -10 -19 -8 -24 1 -6 8 1 15 14 13 28 11 31 -7 10z"/>
<path d="M706 381 c-3 -5 -18 -12 -33 -15 -60 -14 -84 -28 -73 -41 8 -10 6
-14 -7 -17 -10 -2 -1 -6 20 -9 20 -3 37 -1 37 3 0 4 -7 8 -15 8 -24 0 -17 17
9 22 14 3 23 0 22 -6 -2 -6 -1 -8 1 -3 3 4 9 7 15 7 15 0 68 47 61 54 -9 9
-31 7 -37 -3z m3 -20 c-13 -11 -28 -17 -32 -14 -5 3 2 11 15 18 35 20 43 17
17 -4z"/>
<path d="M605 371 c-11 -5 -29 -19 -40 -32 l-20 -24 25 22 c14 12 41 26 60 31
19 6 26 10 15 10 -11 1 -29 -3 -40 -7z"/>
</g>
</svg>
