<?xml version="1.0" standalone="no"?>
<!DOCTYPE svg PUBLIC "-//W3C//DTD SVG 20010904//EN"
 "http://www.w3.org/TR/2001/REC-SVG-20010904/DTD/svg10.dtd">
<svg version="1.0" xmlns="http://www.w3.org/2000/svg"
 width="256.000000pt" height="256.000000pt" viewBox="0 0 256.000000 256.000000"
 preserveAspectRatio="xMidYMid meet">

<g transform="translate(0.000000,256.000000) scale(0.100000,-0.100000)"
fill="#000000" stroke="none">
<path d="M0 1420 l0 -910 232 0 233 0 142 -142 143 -143 143 143 142 142 284
0 284 0 101 -99 c110 -106 149 -127 219 -118 79 11 131 71 134 155 l1 57 251
3 251 2 0 910 0 910 -1280 0 -1280 0 0 -910z m1260 710 l0 -120 -590 0 -590 0
0 120 0 120 590 0 590 0 0 -120z m1038 -2 c3 -17 -18 -18 -337 -18 -216 0
-342 4 -346 10 -17 28 15 30 343 28 312 -3 337 -4 340 -20z m-125 -208 l307 0
0 -665 0 -665 -243 0 -242 0 -275 275 -275 275 215 215 214 215 28 -27 29 -27
92 92 92 92 -88 87 -87 88 -92 -92 -92 -92 27 -29 27 -28 -215 -214 -215 -215
-144 144 -145 145 1 77 c0 62 -5 88 -25 132 -51 113 -158 182 -282 182 -65 0
-165 -26 -165 -43 0 -4 44 -50 97 -104 l97 -97 -10 -38 c-8 -33 -14 -39 -48
-46 l-38 -9 -99 98 c-81 80 -101 96 -109 84 -21 -31 -35 -97 -34 -160 1 -168
136 -300 307 -300 l62 0 93 -93 92 -92 -253 -253 -252 -252 -223 0 -222 0 0
677 0 676 893 -6 c490 -4 1030 -7 1200 -7z m-1162 -1324 l-255 -255 -88 81
c-48 44 -88 85 -88 92 0 6 114 125 252 263 l253 253 90 -90 90 -90 -254 -254z
m407 91 l93 -94 -192 -7 c-105 -4 -194 -4 -198 0 -6 6 186 194 198 194 4 0 48
-42 99 -93z"/>
<path d="M162 2205 c-58 -48 -45 -137 24 -170 43 -20 83 -13 117 21 31 31 39
70 22 110 -27 66 -108 85 -163 39z m88 -75 c0 -13 -7 -20 -20 -20 -13 0 -20 7
-20 20 0 13 7 20 20 20 13 0 20 -7 20 -20z"/>
<path d="M460 2217 c-27 -21 -50 -60 -50 -85 0 -39 29 -83 67 -98 46 -20 86
-10 118 28 58 69 13 168 -77 168 -24 0 -50 -6 -58 -13z m78 -90 c2 -11 -3 -17
-16 -17 -24 0 -32 8 -25 26 7 20 37 13 41 -9z"/>
<path d="M747 2219 c-23 -14 -47 -62 -47 -97 0 -56 70 -112 123 -98 90 22 116
142 41 191 -26 17 -90 20 -117 4z m81 -86 c5 -17 -26 -29 -40 -15 -6 6 -7 15
-3 22 9 14 37 9 43 -7z"/>
</g>
</svg>
